<svg width="34" height="35" viewBox="0 0 34 35" fill="none" xmlns="http://www.w3.org/2000/svg">
<path d="M6.39888 35H4.9911C3.45241 35 2.09251 34.389 1.16338 33.2825C0.234249 32.1746 -0.14444 30.6584 0.127258 29.124C0.659396 26.1029 3.4496 23.7378 6.48193 23.7378H10.0267V5.25523C10.0331 3.0339 11.7539 1.19459 13.9699 1.04036L29.4553 0.0084678C30.6207 -0.065143 31.765 0.343626 32.62 1.13891C33.4703 1.9343 33.9588 3.05911 33.9588 4.22333L33.9447 24.4516C33.9433 24.7613 33.9278 25.0682 33.8701 25.392C33.338 28.4116 30.5478 30.7767 27.5154 30.7767H26.1077C24.569 30.7767 23.2091 30.1657 22.2799 29.0592C21.3508 27.9513 20.9721 26.4351 21.2438 24.9007C21.7759 21.8796 24.5661 19.5145 27.5985 19.5145H31.1432V12.67C31.1432 12.2758 30.9856 11.9098 30.697 11.6409C30.4139 11.373 30.0312 11.2365 29.6426 11.265L14.1571 12.2969C13.4185 12.3485 12.8449 12.9614 12.8422 13.7018V28.665C12.8422 28.7903 12.8253 28.9114 12.7958 29.0268C12.7831 29.4562 12.7676 29.535 12.755 29.6153C12.22 32.6335 9.42981 35 6.39888 35ZM6.48053 26.5534C4.83062 26.5534 3.19057 27.9541 2.89775 29.6139C2.77105 30.3375 2.92168 30.9963 3.32008 31.4735C3.7044 31.9311 4.29848 32.1845 4.9911 32.1845H6.39888C8.04878 32.1845 9.68884 30.7837 9.98165 29.124C9.97743 29.1211 9.99714 28.7115 10.0098 26.5534L6.48053 26.5534ZM27.5971 22.3301C25.9472 22.3301 24.3071 23.7308 24.0143 25.3906C23.8876 26.1142 24.0382 26.773 24.4366 27.2502C24.821 27.7077 25.415 27.9611 26.1077 27.9611H27.5154C29.1653 27.9611 30.8054 26.5604 31.0982 24.9007C31.1264 24.7416 31.1278 24.5867 31.1278 24.4361L31.1376 22.3301L27.5971 22.3301ZM14.1543 3.85027C13.4156 3.90189 12.842 4.5148 12.8394 5.25523V9.72067C13.1956 9.59398 13.5729 9.51373 13.967 9.48699L29.4525 8.45509C30.0269 8.42271 30.6027 8.49873 31.1404 8.68878V4.22192C31.1404 3.82775 30.9828 3.46173 30.6942 3.19284C30.4108 2.92555 30.0283 2.78923 29.6397 2.81697L14.1543 3.85027Z" fill="url(#paint0_linear_3_2094)"/>
<defs>
<linearGradient id="paint0_linear_3_2094" x1="8.5206" y1="8.75" x2="8.5206" y2="8.75" gradientUnits="userSpaceOnUse">
<stop stop-color="#E95841"/>
<stop offset="1" stop-color="#E94B63"/>
</linearGradient>
</defs>
</svg>
