<svg width="64" height="40" viewBox="0 0 64 40" fill="none" xmlns="http://www.w3.org/2000/svg">
<path fill-rule="evenodd" clip-rule="evenodd" d="M0.420288 0H20.8026C26.9967 0 31.8868 3.42048 31.8868 10.4301C31.8868 17.4388 25.91 17.883 25.91 17.883C33.7881 17.883 33.2447 27.6094 33.2447 27.6094C33.2447 39.563 20.8026 39.17 20.8026 39.17L0.420288 39.1701V0ZM20.3094 32.2086C21.9514 32.1567 24.932 31.6193 24.932 27.1199C24.932 21.6865 20.8026 21.7412 20.8026 21.7412L9.40124 21.7406V32.2086H20.3094ZM20.0958 15.7027C21.9431 15.7027 23.5732 15.1124 23.5732 11.0369C23.5732 6.96221 20.8026 6.96221 20.8026 6.96221L9.40124 6.96161V15.7027H20.0958Z" fill="white"/>
<path fill-rule="evenodd" clip-rule="evenodd" d="M49.84 9.96574C34.7775 9.96574 34.7906 25.0151 34.7906 25.0151C34.7906 25.0151 33.7569 39.9889 49.8408 39.9889C49.8408 39.9889 63.2437 40.7548 63.2437 29.5723H56.3506C56.3506 29.5723 56.5801 33.7843 50.0704 33.7843C50.0704 33.7843 43.1772 34.2451 43.1772 26.9685H63.4732C63.4732 26.9685 65.6944 9.96574 49.84 9.96574ZM43.0999 21.7411C43.0999 21.7411 43.9431 15.7026 49.9939 15.7026C56.0446 15.7026 55.9672 21.7411 55.9672 21.7411H43.0999Z" fill="white"/>
<path d="M57.574 2.3071H41.4136V7.13184H57.574V2.3071Z" fill="white"/>
</svg>
