<svg width="18" height="16" viewBox="0 0 18 16" fill="none" xmlns="http://www.w3.org/2000/svg">
<path d="M17.7167 2.58317C17.075 2.87484 16.3833 3.0665 15.6667 3.15817C16.4 2.7165 16.9667 2.0165 17.2333 1.17484C16.5417 1.5915 15.775 1.88317 14.9667 2.04984C14.3083 1.33317 13.3833 0.916504 12.3333 0.916504C10.375 0.916504 8.77499 2.5165 8.77499 4.4915C8.77499 4.77484 8.80832 5.04984 8.86666 5.30817C5.89999 5.15817 3.25832 3.73317 1.49999 1.57484C1.19166 2.09984 1.01666 2.7165 1.01666 3.3665C1.01666 4.60817 1.64166 5.70817 2.60833 6.33317C2.01666 6.33317 1.46666 6.1665 0.983325 5.9165V5.9415C0.983325 7.67484 2.21666 9.12484 3.84999 9.44984C3.3256 9.59334 2.77507 9.61331 2.24166 9.50817C2.468 10.2186 2.91127 10.8402 3.50917 11.2856C4.10707 11.731 4.82953 11.9779 5.57499 11.9915C4.31135 12.9919 2.74499 13.5326 1.13333 13.5248C0.849992 13.5248 0.566658 13.5082 0.283325 13.4748C1.86666 14.4915 3.74999 15.0832 5.76666 15.0832C12.3333 15.0832 15.9417 9.63317 15.9417 4.90817C15.9417 4.74984 15.9417 4.59984 15.9333 4.4415C16.6333 3.9415 17.2333 3.30817 17.7167 2.58317Z" fill="white"/>
</svg>
484C14.3666 11.3915 12.5916 13.6915 10.05 13.6915C9.24163 13.6915 8.44996 13.2582 8.16663 12.7498L7.60829 14.7248C7.41663 15.4415 6.89163 16.3998 6.53329 16.9748V16.9498Z" fill="white"/>
</svg>
